PathFileType	4	(X/Y/Z)	RBDS018\RBDS018runT25.trc
DataRate	CameraRate	NumFrames	NumMarkers	Units	OrigDataRate	OrigDataStartFrame	OrigNumFrames
150.000000	150.000000	4	33	mm	150.000000	2250	4500
Frame#	Time	L.ASIS			L.Heel.Bottom			L.Heel.Lateral			L.Heel.Top			L.Iliac.Crest			L.MT1			L.MT5			L.PSIS			L.Shank.Bottom.Lateral			L.Shank.Bottom.Medial			L.Shank.Top.Lateral			L.Shank.Top.Medial			L.Thigh.Bottom.Lateral			L.Thigh.Bottom.Medial			L.Thigh.Top.Lateral			L.Thigh.Top.Medial			R.ASIS			R.ASY			R.Heel.Bottom			R.Heel.Lateral			R.Heel.Top			R.Iliac.Crest			R.MT1			R.MT5			R.PSIS			R.Shank.Bottom.Lateral			R.Shank.Bottom.Medial			R.Shank.Top.Lateral			R.Shank.Top.Medial			R.Thigh.Bottom.Lateral			R.Thigh.Bottom.Medial			R.Thigh.Top.Lateral			R.Thigh.Top.Medial			
		X1	Y1	Z1	X2	Y2	Z2	X3	Y3	Z3	X4	Y4	Z4	X5	Y5	Z5	X6	Y6	Z6	X7	Y7	Z7	X8	Y8	Z8	X9	Y9	Z9	X10	Y10	Z10	X11	Y11	Z11	X12	Y12	Z12	X13	Y13	Z13	X14	Y14	Z14	X15	Y15	Z15	X16	Y16	Z16	X17	Y17	Z17	X18	Y18	Z18	X19	Y19	Z19	X20	Y20	Z20	X21	Y21	Z21	X22	Y22	Z22	X23	Y23	Z23	X24	Y24	Z24	X25	Y25	Z25	X26	Y26	Z26	X27	Y27	Z27	X28	Y28	Z28	X29	Y29	Z29	X30	Y30	Z30	X31	Y31	Z31	X32	Y32	Z32	X33	Y33	Z33	

2251	15	2155.439449441936	967.0451506239358	951.3700775205322	1738.803066619565	405.6354636569837	1005.152245383703	1755.13560593627	378.5630773115125	957.7317616479535	1789.408412598382	403.5136329695164	1003.889629314562	2092.352493206241	1043.305803028808	894.4783421596887	1785.413868061767	188.4389841944268	1044.530992919266	1782.816533202491	215.8345212618115	933.1271440348057	1975.893430028354	998.1729287583559	987.4056798969344	1897.521263745982	391.42568282065	938.295513203862	1890.073358648963	422.4776794638071	978.1913646281027	1969.701402244799	425.1956744975459	922.738993537825	1966.003886650616	457.3314023380075	964.6493025789665	2194.68968622959	573.3370358303017	888.1712003839874	2135.415463958709	556.7409488120444	927.3767018613457	2157.757053097401	675.3253861765947	874.0564925211274	2098.912339525336	658.4655823252115	908.2285731189298	2136.778193938191	996.5595476441695	1180.663547985344	2088.346331129359	80.87707559846112	1094.106553611501	1893.084624910887	34.47301535113687	1078.440834332425	1914.005832199067	48.64201126600893	1116.800655935413	1907.369848200627	83.69332236964307	1080.220494164509	2062.583375643982	1058.628944795744	1203.387689090242	2119.818175588901	46.57367506505852	1044.328089974927	2085.975070040598	40.47334933583138	1155.701373934398	1964.684758849229	1010.907020694498	1093.727162600034	2022.410981687271	179.2063297969089	1165.542284389354	1981.319615401781	204.2866744367436	1137.158105408228	2049.05549446399	252.6342374682593	1188.61961849449	2010.284366839213	275.8388122096763	1158.915961991415	2139.150883549935	586.1863770168808	1229.079758590616	2079.437791735368	573.9257180511905	1189.679657730482	2105.115872167349	690.4526740353682	1245.884032766689	2048.324146352549	677.7405274519292	1210.49883083561	
2252	15.00666666666667	2153.763645559738	969.8951063766242	950.4152300915704	1749.955089772582	397.5523442330117	1004.46538618953	1767.355932965894	371.0887764909701	957.0776558895056	1800.583910893599	397.250538486167	1003.120285745892	2089.893469842901	1046.040407877158	894.5603261704307	1804.857972482481	182.4556307991286	1043.975377104368	1801.221520723229	209.5450976222998	932.5078001363277	1974.760587566311	1000.453487685649	988.0471206714526	1909.975498725634	389.067562170388	937.7862952803566	1901.676502616006	419.7075530281106	977.8112728941247	1981.186929600774	424.8833300289828	922.3746422691906	1976.563906828345	456.7393974737387	964.4140613917724	2203.034771263917	578.8137101117088	887.272524805583	2144.024817349453	560.3145224208037	926.0449586361958	2163.147463566695	679.6548958833522	873.1136054950331	2104.508383814346	660.9136208520539	906.656153498172	2136.29591299482	997.7669284801232	1179.801861671381	2071.448965912863	80.77800715556467	1094.54445109209	1876.18588367354	34.85252618417235	1078.606525865792	1897.059659098928	48.90686782138016	1117.011441361861	1890.566233240565	84.04826705436173	1080.499630069353	2062.586115652484	1061.257819070088	1203.140453888521	2102.746238053144	46.46915108370921	1044.546759714475	2068.900771432839	40.36267504972289	1155.977901043565	1963.981205404773	1012.996635772997	1094.472820270781	2006.291934653937	179.4109211804413	1165.673812140329	1965.567503010371	204.9009524540519	1137.264916758767	2033.71126748596	252.5444226467458	1188.834821716751	1995.271824855709	276.1389060619322	1159.015877938245	2129.720882972585	585.9162501808121	1229.447774300057	2069.332389817628	574.8726302318797	1190.729200919218	2098.415674023978	691.0019346790416	1245.939290918991	2040.927190566018	679.5338138644491	1211.117687307473	
2253	15.01333333333333	2152.317401096124	973.1945228017323	949.5181082668815	1761.186288867003	388.3885229008425	1004.071869330815	1779.584635547361	362.620983262601	956.6823889300911	1811.758665981207	390.1042716980566	1002.518662957503	2087.699655289858	1049.004183023163	894.6695273592076	1824.987554416514	175.8435885891123	1043.535143886861	1819.951547971426	202.6026820842662	932.058118783992	1973.838634157705	1003.161064257642	988.8250787837799	1922.158014858938	386.1801821156586	937.3827656847327	1912.904292602693	416.3577867158114	977.5356792574868	1992.169461268816	424.3015501572577	922.0400495103316	1986.531926500258	455.8394621433254	964.2249858428374	2210.876312637059	585.005758960612	886.3864165242369	2152.149669219689	564.7019032493614	924.7095960895356	2168.185046604878	684.68113210153	872.1567530136201	2109.813402383667	664.1546242996691	905.1018986218614	2136.081985919557	999.2815111080704	1178.945455602788	2054.521738455674	80.80330493962542	1094.819133498704	1859.241850173697	35.40038849958857	1078.700344581545	1880.079084274612	49.33769730124405	1117.151181908769	1873.740207573471	84.57060896527753	1080.691646369114	2063.206079959246	1064.259860959569	1202.959658335819	2085.644799926266	46.40451930891081	1044.646475711829	2051.775001518137	40.3466051228743	1156.122471326363	1963.520791152964	1015.540144015808	1095.395353239129	1989.943380323595	179.9288786929838	1165.577548144306	1949.53789652555	205.7301688812413	1137.144203337541	2017.99092250325	252.8312742959093	1188.810833994291	1979.800895027723	276.7264018516563	1158.876647615274	2119.676803229082	586.0791063201658	1229.388187843966	2058.667584965622	576.4729472427972	1191.272294544436	2091.328176382996	691.9567526077385	1245.712370224004	2033.205526610966	681.9346547454636	1211.365925173446	
2254	15.02	2151.125849902043	976.8281978541287	948.7439531529564	1772.603278588908	378.1968751085296	1003.966785328787	1791.922275936549	353.2216444761565	956.5342429878139	1823.020038319867	382.1065758883393	1002.100865817649	2085.835043797701	1052.146871319165	894.8107902750178	1845.768941844026	168.6899490103085	1043.155198241313	1839.026376393349	195.1030898131096	931.7271418087455	1973.121313295967	1006.279796764221	989.7140774793913	1934.102893533983	382.7460316650617	937.0918191222355	1923.80355695885	412.4062420155173	977.3724588992395	2002.668099130148	423.3925289967362	921.7435840401789	1995.950087009098	454.5626650691104	964.0976717713982	2218.159632508525	591.7965455323128	885.5115753805579	2159.724697791671	569.7971287127552	923.3717063342044	2172.846313531703	690.3145910532784	871.2105590860519	2114.791121337181	668.1127910444485	903.5980778926985	2136.102140930111	1001.065662293609	1178.179100223945	2037.614297626198	80.96726878229755	1094.949143490393	1842.279535479794	36.2173741432013	1078.738205699843	1863.098915601194	50.0157978730716	1117.237936135397	1856.938282558461	85.35470139278048	1080.826344400741	2064.402704881813	1067.545783637014	1202.854348740907	2068.534471030698	46.38945159022489	1044.644698030368	2034.62564872803	40.42042711112124	1156.139055407682	1963.302925796285	1018.519759752914	1096.458049045106	1973.430347844979	180.8302229463223	1165.282550235559	1933.289257901706	206.8546537651018	1136.824439656152	2001.967665583344	253.5637289596736	1188.571087764405	1963.944571231818	277.6793352304593	1158.526479557439	2109.121042242827	586.7299934788848	1228.87833816675	2047.575003123931	578.7821367756396	1191.260536022419	2083.931497747766	693.350001113327	1245.200460269006	2025.266065243848	684.9689636085394	1211.224737416426	
